<svg xmlns="http://www.w3.org/2000/svg" viewBox="0 0 64 64" aria-hidden="true">
  <path fill="currentColor" fill-rule="evenodd" d="M32 12.5c-11.05 0-20 8.95-20 20 0 8.84 5.73 16.33 13.68 18.98 1 .18 1.37-.43 1.37-.96 0-.47-.02-2.04-.03-3.71-5.56 1.21-6.73-2.36-6.73-2.36-.91-2.31-2.22-2.93-2.22-2.93-1.81-1.24.14-1.21.14-1.21 2 .14 3.05 2.05 3.05 2.05 1.78 3.05 4.67 2.17 5.8 1.66.18-1.29.7-2.17 1.27-2.67-4.44-.5-9.1-2.22-9.1-9.88 0-2.18.78-3.97 2.05-5.37-.2-.5-.89-2.54.2-5.3 0 0 1.67-.54 5.5 2.05A19.08 19.08 0 0 1 32 22.18c1.7.01 3.42.23 5.02.67 3.82-2.59 5.48-2.05 5.48-2.05 1.1 2.76.41 4.8.2 5.3a7.73 7.73 0 0 1 2.05 5.37c0 7.68-4.68 9.37-9.13 9.87.72.62 1.36 1.84 1.36 3.7 0 2.67-.02 4.83-.02 5.48 0 .53.36 1.15 1.38.96A20.01 20.01 0 0 0 52 32.5c0-11.05-8.95-20-20-20Z" clip-rule="evenodd"/>
</svg>
